<?xml version="1.0" encoding="utf-8"?>
<!-- Generator: Adobe Illustrator 28.0.0, SVG Export Plug-In . SVG Version: 6.00 Build 0)  -->
<svg version="1.1" id="Слой_1" xmlns="http://www.w3.org/2000/svg" xmlns:xlink="http://www.w3.org/1999/xlink" x="0px" y="0px"
	 viewBox="0 0 1920 1080" style="enable-background:new 0 0 1920 1080;" xml:space="preserve">
<g>
	<path d="M644.63,405.72c-16.5-21.49-35.72-41.44-46.11-67.02c-19.99-65.48,35.91-119.93,100.19-95.32
		c52.06,21.54,71.64,97.53,28.52,137.12c18.62,12.37,36.82,24.45,55.58,36.91c26.44-29.19,60.14-46.64,97.26-55.35
		c10.53-29.2,33.47-115.28,80.25-111.12c5.26,0.47,8.49,5.98,6.54,10.89c-12.27,30.91-32.87,59.26-42.07,91.89
		c11.28-1.57,132.48-4.47,96.79,22.78c-32.36,3.58-76.65,16.56-108.21,27.91c0,0-7.1,24.87-9.52,44.45
		c-5.45,44.16-10.12,98.82,21.25,134.82c38.48,16.13,75.82-21.71,101.74-46.25c21.86-19.78,32.88-48.95,54.73-67.93
		c26.54-11.52,29.42,23.65,41.09,38.34c46.51,58.18,133.07,10.43,141.13-54.24c12.69-74.42-64.08-153.21-138.1-119.61
		c-53.62,17.89-44.84,129.09-3.91,92.68c17.44-15.51-21.22-33.62-4.16-39.33c59.04-19.76,39.21,105.06-29.09,73.54
		c-51.2-23.63-45.56-102.67-6.11-136.94c75.22-69.23,194.68-3.78,211.34,88.01c7.42-25.37,3.14-52.48,9.14-78.14
		c-0.48-0.25-0.41-0.21-0.89-0.46c-14.77,17.54-45.9,7.15-24.57-14.18c26.43-25.99,63.79-42.79,100.63-45.49
		c182.69,5.07,171.76,239.94-14.51,225.12c-0.18,0.46-0.16,0.42-0.34,0.88c49.74,36.82,124.37,31.65,162.48-19.25
		c4.65-6.01,4.65-6.01,4.65-6.01c-3.36-11.86-5.79-39.85-8.65-51.52c-7.01-45.59-8.02-91.22-6.81-137.25
		c2.61-18.21,52.06-38.93,50.47-7.26l0,0c2.64,38.77,13.53,247.39,70.67,234.02c38.74-12.6,51.07-56.25,62.54-91.04
		c8.5-39.65,12.39-79.91,13.83-119.92c0.88-24.39-11.06-61.9,24.66-61.42c31.6,1.55,31.86,130.42,32.06,157.04
		c-2.83,149.03-40.59,306.04-143.07,418.95c-81.11,91.84-208.52,133.88-328.63,116.96c-66.34-11.3-140.96-36.88-175.44-99.36
		c-62.03-124.37,128.08-237.21,234.92-195.91c63.65,25.93,43.3,108.53-15.85,125.77c-25.23,5.87-52,10.71-75.92-1.91
		c-16.09-7.9-17.43-32.91-0.19-43.52c12.78-7.86,123.87,28.85,117.02-34.29c-10.38-95.63-261.54,25.05-209.07,130.35
		c67.28,115.01,238.66,109.43,332.74,31.05c105.04-79.11,160.95-211.59,185.37-336.41c-41.97,44.95-129.52,55.72-151.84-14.92
		c-78.69,85.88-119.63,84.29-207.62,10.94c-4.97,20.92-9.3,52.72-24.64,60.88c-34.52,18.36-27.17-31.55-25.93-51.35l-1.49-0.52
		c-35.19,78.68-141.84,97.25-186.82,16.99c-0.76,0-0.92,0-1.69-0.01c-34.05,62.13-99.42,153.15-180.83,121.95
		C872.3,846.1,615.32,935.95,461.79,815.68c-150.5-117.52-57.3-313.36,124.18-303.65c192.93,9.12,175.14,224.42,11.23,194.8
		c-35.5-6.41-80.49-58.5-43.95-82.49c13.83-9.08,30.21,30.27,44.98,42.81c33.15,50.6,117.3,10.07,108.58-46.38
		c-16.47-80.42-122.99-89.41-185.6-59.32c-40.31,13.47-78.97,44.4-89.98,86.84c-25.08,114.34,116.51,180.11,212.53,161.49
		c91.66-15.47,187.95-83.05,192.54-183c-3.53-71.46-68.02-115.94-117.69-158.47c-18.61-11.49-53.94-39.72-53.94-39.72
		C636.42,437.97,595.11,422.73,644.63,405.72z M1334.29,433.52c0.05,0,0.09,0,0.14,0l1.04,26.99
		c46.8,0.87,112.07-16.23,124.38-64.21c20.9-81.45-86.35-110.84-131.47-72.87C1330.64,359.82,1332.03,396.92,1334.29,433.52z
		 M695.73,358.88c44.13-37.16,3.99-78.38-26.57-74.3C617.66,291.46,674.17,343.94,695.73,358.88 M863.42,423.7
		c-3.48-1.4-33.83,12.89-44.81,21.02c10.64,10.31,21.25,20.58,32.31,31.29C855.06,458.64,859.19,441.38,863.42,423.7z"/>
	<path d="M494.83,362.88c3.42,53.12-3.78,72.04-53.43,92.44c-56.14,22.96-114.37,41.13-174.28,51.08
		c-40.91,1.49-57.5,12.16-76.87-29.65c-19.12-41.27-36.28-91.13-52.31-135.42c-11.96-33.04-19.28-53.42-25.19-82.85
		c-8.64-43.07,31.13-65.23,61.14-80.14c46.45-18.32,240.31-113.92,268.21-57.87c24.79,41.16,32.47,90.73,40.25,137.67
		C489.03,298.4,494.76,342.18,494.83,362.88z M423.86,405.78c3.92-43.72-2.37-35.24-76.6-38.9c-30.79-1.52-61.7-2.74-92.67-4.38
		c-14.42-0.76-26.17-0.52-24.89-6.66c11.82-56.6,16.88-38.83,67.98-41.56c42.9,0.42,122.55-0.13,126.22-57.86
		c2.23-35.16,13.25-101.22-29.63-94.38c-47.55,7.59-97.49,16.72-142.21,31.97c-11.04,3.76-16.6,20.32-19,25.54
		c-6.97,15.17-8.08,24.47,2.43,23.48c10.15-0.96,21.28-1.06,24.39-12.17c3.43-12.27,5.17-19.09,12.33-21.34
		c29.77-9.32,68.9-12.26,100.28-14.04c11.31-0.64,6.91,23.89,5.68,31.66c-2.77,17.48-3.2,28.1-16.25,32.02
		c-43.6,17.82-96.81-1.1-136.93,27.22c-21.59,14.32-25.58,41.79-31.69,64.97c-19.45,73.75-6.46,66.16,79.84,79.13
		c32.96,4.95,68.1,7.15,101.45,9.56C425.3,443.72,421.49,440.45,423.86,405.78z"/>
</g>
</svg>
